<svg width="24" height="24" viewBox="0 0 24 24" fill="none" xmlns="http://www.w3.org/2000/svg">
<path opacity="0.4" fill-rule="evenodd" clip-rule="evenodd" d="M19.8772 13.9622C19.0302 12.0992 19.0522 11.3982 19.0912 10.1242C19.1012 9.82317 19.1112 9.49617 19.1112 9.12117C19.1112 6.14417 16.9822 1.95117 12.2502 1.95117C7.51812 1.95117 5.38912 6.14417 5.38912 9.12117C5.38912 9.49517 5.39912 9.82317 5.40912 10.1242C5.44812 11.3982 5.46912 12.0992 4.61312 13.9872C4.24712 14.9312 4.29112 15.7462 4.74612 16.4102C5.83812 18.0082 8.99812 18.2282 12.2502 18.2282C15.5022 18.2282 18.6622 18.0082 19.7542 16.4102C20.2102 15.7462 20.2542 14.9312 19.8772 13.9622Z" fill="#1E73BE"/>
<path fill-rule="evenodd" clip-rule="evenodd" d="M14.9472 19.2407C13.3162 19.4217 11.5482 19.4207 9.53814 19.2387C9.23714 19.2147 8.93914 19.3737 8.80114 19.6487C8.66214 19.9247 8.70614 20.2557 8.91114 20.4857C9.81114 21.4927 10.9952 22.0487 12.2452 22.0487H12.2472C13.5002 22.0487 14.6872 21.4937 15.5892 20.4857C15.7962 20.2547 15.8392 19.9187 15.6972 19.6417C15.5542 19.3667 15.2602 19.2127 14.9472 19.2407Z" fill="#1E73BE"/>
</svg>
