<svg width="28" height="28" viewBox="0 0 28 28" fill="none" xmlns="http://www.w3.org/2000/svg">
<path d="M20.9896 2.33594C21.6084 2.33594 22.2019 2.58177 22.6395 3.01935C23.0771 3.45694 23.3229 4.05043 23.3229 4.66927V23.3359C23.3229 23.9548 23.0771 24.5483 22.6395 24.9859C22.2019 25.4234 21.6084 25.6693 20.9896 25.6693H6.98958C6.37074 25.6693 5.77725 25.4234 5.33967 24.9859C4.90208 24.5483 4.65625 23.9548 4.65625 23.3359V4.66927C4.65625 4.05043 4.90208 3.45694 5.33967 3.01935C5.77725 2.58177 6.37074 2.33594 6.98958 2.33594H20.9896ZM13.9896 15.1693H10.4896C10.1802 15.1693 9.88342 15.2922 9.66463 15.511C9.44583 15.7298 9.32292 16.0265 9.32292 16.3359C9.32292 16.6454 9.44583 16.9421 9.66463 17.1609C9.88342 17.3797 10.1802 17.5026 10.4896 17.5026H13.9896C14.299 17.5026 14.5957 17.3797 14.8145 17.1609C15.0333 16.9421 15.1563 16.6454 15.1563 16.3359C15.1563 16.0265 15.0333 15.7298 14.8145 15.511C14.5957 15.2922 14.299 15.1693 13.9896 15.1693ZM17.4896 9.33594H10.4896C10.1922 9.33627 9.90621 9.45013 9.68999 9.65426C9.47376 9.85839 9.34364 10.1374 9.32622 10.4342C9.30879 10.7311 9.40537 11.0234 9.59623 11.2514C9.78708 11.4794 10.0578 11.626 10.3531 11.6611L10.4896 11.6693H17.4896C17.7869 11.6689 18.073 11.5551 18.2892 11.3509C18.5054 11.1468 18.6355 10.8678 18.653 10.571C18.6704 10.2741 18.5738 9.98183 18.3829 9.7538C18.1921 9.52577 17.9214 9.37922 17.6261 9.3441L17.4896 9.33594Z" fill="#1E73BE"/>
</svg>
