<svg width="60" height="60" viewBox="0 0 60 60" fill="none" xmlns="http://www.w3.org/2000/svg">
<path fill-rule="evenodd" clip-rule="evenodd" d="M24.445 52.5001H35.555C43.3575 52.5001 47.26 52.5001 50.0625 50.6626C51.2721 49.8705 52.3136 48.8476 53.1275 47.6526C55 44.9026 55 41.0701 55 33.4101C55 25.7501 55 21.9176 53.1275 19.1676C52.3136 17.9726 51.2721 16.9498 50.0625 16.1576C48.2625 14.9751 46.0075 14.5526 42.555 14.4026C40.9075 14.4026 39.49 13.1776 39.1675 11.5901C38.921 10.4273 38.2807 9.38521 37.3546 8.63999C36.4286 7.89478 35.2736 7.49214 34.085 7.50012H25.915C23.445 7.50012 21.3175 9.21262 20.8325 11.5901C20.51 13.1776 19.0925 14.4026 17.445 14.4026C13.995 14.5526 11.74 14.9776 9.9375 16.1576C8.72884 16.95 7.68818 17.9728 6.875 19.1676C5 21.9176 5 25.7476 5 33.4101C5 41.0726 5 44.9001 6.8725 47.6526C7.6825 48.8426 8.7225 49.8651 9.9375 50.6626C12.74 52.5001 16.6425 52.5001 24.445 52.5001ZM30 23.1826C24.2475 23.1826 19.5825 27.7601 19.5825 33.4076C19.5825 39.0551 24.25 43.6401 30 43.6401C35.75 43.6401 40.4175 39.0601 40.4175 33.4126C40.4175 27.7651 35.75 23.1826 30 23.1826ZM30 27.2726C26.55 27.2726 23.75 30.0201 23.75 33.4101C23.75 36.7976 26.55 39.5451 30 39.5451C33.45 39.5451 36.25 36.7976 36.25 33.4101C36.25 30.0226 33.45 27.2726 30 27.2726ZM41.805 25.2276C41.805 24.0976 42.7375 23.1826 43.89 23.1826H46.665C47.815 23.1826 48.75 24.0976 48.75 25.2276C48.7447 25.7749 48.5224 26.2976 48.1319 26.6811C47.7415 27.0645 47.2147 27.2773 46.6675 27.2726H43.89C43.6188 27.2753 43.3498 27.2245 43.0982 27.1231C42.8467 27.0218 42.6176 26.8719 42.4239 26.682C42.2303 26.4921 42.076 26.2659 41.9698 26.0164C41.8636 25.7668 41.8076 25.4988 41.805 25.2276Z" fill="#1E73BE"/>
</svg>
