<svg width="28" height="28" viewBox="0 0 28 28" fill="none" xmlns="http://www.w3.org/2000/svg">
<path d="M14.0104 2.33594C20.4539 2.33594 25.6771 7.5591 25.6771 14.0026C25.6771 20.4461 20.4539 25.6693 14.0104 25.6693C7.56692 25.6693 2.34375 20.4461 2.34375 14.0026C2.34375 7.5591 7.56692 2.33594 14.0104 2.33594ZM11.6771 7.0026H11.0938C10.7843 7.0026 10.4876 7.12552 10.2688 7.34431C10.05 7.56311 9.92708 7.85985 9.92708 8.16927V11.6693H9.34375C9.03433 11.6693 8.73758 11.7922 8.51879 12.011C8.3 12.2298 8.17708 12.5265 8.17708 12.8359C8.17708 13.1454 8.3 13.4421 8.51879 13.6609C8.73758 13.8797 9.03433 14.0026 9.34375 14.0026H9.92708V15.1693H9.34375C9.03433 15.1693 8.73758 15.2922 8.51879 15.511C8.3 15.7298 8.17708 16.0265 8.17708 16.3359C8.17708 16.6454 8.3 16.9421 8.51879 17.1609C8.73758 17.3797 9.03433 17.5026 9.34375 17.5026H9.92708V19.8359C9.92708 20.1454 10.05 20.4421 10.2688 20.6609C10.4876 20.8797 10.7843 21.0026 11.0938 21.0026C11.4032 21.0026 11.6999 20.8797 11.9187 20.6609C12.1375 20.4421 12.2604 20.1454 12.2604 19.8359V17.5026H14.1539L15.2611 20.2688C15.3476 20.4853 15.4969 20.6709 15.6899 20.8017C15.8829 20.9325 16.1106 21.0025 16.3438 21.0026H16.9271C17.2365 21.0026 17.5332 20.8797 17.752 20.6609C17.9708 20.4421 18.0937 20.1454 18.0937 19.8359V17.5026H18.6771C18.9865 17.5026 19.2832 17.3797 19.502 17.1609C19.7208 16.9421 19.8438 16.6454 19.8438 16.3359C19.8438 16.0265 19.7208 15.7298 19.502 15.511C19.2832 15.2922 18.9865 15.1693 18.6771 15.1693H18.0937V14.0026H18.6771C18.9865 14.0026 19.2832 13.8797 19.502 13.6609C19.7208 13.4421 19.8438 13.1454 19.8438 12.8359C19.8438 12.5265 19.7208 12.2298 19.502 12.011C19.2832 11.7922 18.9865 11.6693 18.6771 11.6693H18.0937V8.16927C18.0937 7.85985 17.9708 7.56311 17.752 7.34431C17.5332 7.12552 17.2365 7.0026 16.9271 7.0026C16.6177 7.0026 16.3209 7.12552 16.1021 7.34431C15.8833 7.56311 15.7604 7.85985 15.7604 8.16927V11.6693H14.3336L12.7609 7.73644C12.6744 7.51976 12.5248 7.33402 12.3316 7.20321C12.1384 7.0724 11.9104 7.00252 11.6771 7.0026ZM15.7604 14.0026V15.1693H15.7336L15.2669 14.0026H15.7604ZM12.7539 14.0026L13.2206 15.1693H12.2604V14.0026H12.7539Z" fill="#1E73BE"/>
</svg>
