<svg width="24" height="24" viewBox="0 0 24 24" fill="none" xmlns="http://www.w3.org/2000/svg">
<path opacity="0.5" d="M22 16V15C22 12.171 22 10.758 21.121 9.879C20.242 9 18.828 9 16 9H8C5.17 9 3.757 9 2.878 9.88C2 10.757 2 12.17 2 14.998V16C2 18.828 2 20.242 2.879 21.121C3.757 22 5.172 22 8 22H16C18.828 22 20.243 22 21.121 21.121C21.999 20.242 22 18.828 22 16Z" fill="#1E73BE"/>
<path fill-rule="evenodd" clip-rule="evenodd" d="M12.0004 15.7506C12.1993 15.7506 12.39 15.6715 12.5307 15.5309C12.6713 15.3902 12.7504 15.1995 12.7504 15.0006V4.02756L14.4304 5.98856C14.5598 6.13973 14.744 6.2333 14.9424 6.24868C15.1408 6.26405 15.3372 6.19998 15.4884 6.07056C15.6395 5.94113 15.7331 5.75695 15.7485 5.55854C15.7639 5.36013 15.6998 5.16373 15.5704 5.01256L12.5704 1.51256C12.5 1.43022 12.4125 1.36412 12.3141 1.31879C12.2157 1.27347 12.1087 1.25 12.0004 1.25C11.892 1.25 11.785 1.27347 11.6866 1.31879C11.5882 1.36412 11.5008 1.43022 11.4304 1.51256L8.43036 5.01256C8.36628 5.08741 8.31756 5.17415 8.287 5.26783C8.25644 5.36151 8.24463 5.4603 8.25224 5.55854C8.25986 5.65678 8.28675 5.75257 8.33138 5.84042C8.37601 5.92827 8.43751 6.00647 8.51236 6.07056C8.58722 6.13464 8.67396 6.18336 8.76764 6.21392C8.86132 6.24448 8.9601 6.25629 9.05835 6.24868C9.15659 6.24106 9.25237 6.21417 9.34022 6.16954C9.42808 6.12491 9.50628 6.06341 9.57036 5.98856L11.2504 4.02856V15.0006C11.2504 15.4146 11.5864 15.7506 12.0004 15.7506Z" fill="#1E73BE"/>
</svg>
