<svg width="60" height="60" viewBox="0 0 60 60" fill="none" xmlns="http://www.w3.org/2000/svg">
<path fill-rule="evenodd" clip-rule="evenodd" d="M10.43 7.93C7.5 10.8575 7.5 15.5725 7.5 25V35C7.5 44.4275 7.5 49.1425 10.43 52.07C13.36 54.9975 18.0725 55 27.5 55H32.5C41.9275 55 46.6425 55 49.57 52.07C52.4975 49.14 52.5 44.4275 52.5 35V25C52.5 15.5725 52.5 10.8575 49.57 7.93C46.64 5.0025 41.9275 5 32.5 5H27.5C18.0725 5 13.3575 5 10.43 7.93ZM20 23.125C19.5027 23.125 19.0258 23.3225 18.6742 23.6742C18.3225 24.0258 18.125 24.5027 18.125 25C18.125 25.4973 18.3225 25.9742 18.6742 26.3258C19.0258 26.6775 19.5027 26.875 20 26.875H40C40.4973 26.875 40.9742 26.6775 41.3258 26.3258C41.6775 25.9742 41.875 25.4973 41.875 25C41.875 24.5027 41.6775 24.0258 41.3258 23.6742C40.9742 23.3225 40.4973 23.125 40 23.125H20ZM20 33.125C19.5027 33.125 19.0258 33.3225 18.6742 33.6742C18.3225 34.0258 18.125 34.5027 18.125 35C18.125 35.4973 18.3225 35.9742 18.6742 36.3258C19.0258 36.6775 19.5027 36.875 20 36.875H32.5C32.9973 36.875 33.4742 36.6775 33.8258 36.3258C34.1775 35.9742 34.375 35.4973 34.375 35C34.375 34.5027 34.1775 34.0258 33.8258 33.6742C33.4742 33.3225 32.9973 33.125 32.5 33.125H20Z" fill="#1E73BE"/>
</svg>
