<svg width="24" height="24" viewBox="0 0 24 24" fill="none" xmlns="http://www.w3.org/2000/svg">
<path d="M12 10C16.418 10 20 8.21 20 6C20 3.79 16.418 2 12 2C7.582 2 4 3.79 4 6C4 8.21 7.582 10 12 10Z" fill="#1E73BE"/>
<path opacity="0.5" d="M4 12V18C4 20.21 7.582 22 12 22C16.418 22 20 20.21 20 18V12C20 14.21 16.418 16 12 16C7.582 16 4 14.21 4 12Z" fill="#1E73BE"/>
<path opacity="0.7" d="M4 6V12C4 14.21 7.582 16 12 16C16.418 16 20 14.21 20 12V6C20 8.21 16.418 10 12 10C7.582 10 4 8.21 4 6Z" fill="#1E73BE"/>
</svg>
