<svg width="24" height="24" viewBox="0 0 24 24" fill="none" xmlns="http://www.w3.org/2000/svg">
<path opacity="0.4" d="M15 9C16.6569 9 18 7.65685 18 6C18 4.34315 16.6569 3 15 3C13.3431 3 12 4.34315 12 6C12 7.65685 13.3431 9 15 9Z" fill="#1E73BE"/>
<path opacity="0.4" d="M16 20C18.7614 20 21 18.6569 21 17C21 15.3431 18.7614 14 16 14C13.2386 14 11 15.3431 11 17C11 18.6569 13.2386 20 16 20Z" fill="#1E73BE"/>
<path d="M9 10C11.2091 10 13 8.20914 13 6C13 3.79086 11.2091 2 9 2C6.79086 2 5 3.79086 5 6C5 8.20914 6.79086 10 9 10Z" fill="#1E73BE"/>
<path d="M9 21C12.866 21 16 19.2091 16 17C16 14.7909 12.866 13 9 13C5.13401 13 2 14.7909 2 17C2 19.2091 5.13401 21 9 21Z" fill="#1E73BE"/>
</svg>
