<svg width="14" height="16" viewBox="0 0 14 16" fill="none" xmlns="http://www.w3.org/2000/svg">
<g clip-path="url(#clip0_7055_13529)">
<path d="M2.8401 4.47844V6.71844H1.8801C1.54062 6.71844 1.21505 6.85329 0.975001 7.09334C0.734954 7.33339 0.600098 7.65896 0.600098 7.99844L0.600098 14.3984C0.600098 14.7379 0.734954 15.0635 0.975001 15.3035C1.21505 15.5436 1.54062 15.6784 1.8801 15.6784H12.1201C12.4596 15.6784 12.7851 15.5436 13.0252 15.3035C13.2652 15.0635 13.4001 14.7379 13.4001 14.3984V7.99844C13.4001 7.65896 13.2652 7.33339 13.0252 7.09334C12.7851 6.85329 12.4596 6.71844 12.1201 6.71844H11.1601V4.47844C11.1601 3.37514 10.7218 2.31702 9.94166 1.53687C9.16151 0.75672 8.1034 0.318436 7.0001 0.318436C5.8968 0.318436 4.83868 0.75672 4.05853 1.53687C3.27838 2.31702 2.8401 3.37514 2.8401 4.47844ZM4.4401 6.71844V4.47844C4.4401 3.79948 4.70981 3.14834 5.1899 2.66824C5.67 2.18815 6.32114 1.91844 7.0001 1.91844C7.67905 1.91844 8.3302 2.18815 8.81029 2.66824C9.29038 3.14834 9.5601 3.79948 9.5601 4.47844V6.71844H4.4401ZM5.7201 10.2384C5.72015 10.0167 5.7778 9.79876 5.88741 9.606C5.99702 9.41323 6.15483 9.25226 6.34537 9.13883C6.53592 9.02541 6.75266 8.96343 6.97436 8.95897C7.19606 8.95451 7.41512 9.00772 7.61007 9.1134C7.80502 9.21907 7.96917 9.37357 8.08644 9.56177C8.20372 9.74997 8.27009 9.9654 8.27905 10.187C8.28801 10.4085 8.23926 10.6286 8.13758 10.8257C8.03589 11.0227 7.88475 11.19 7.69898 11.3111L7.69386 11.3143C7.69386 11.3143 7.81866 12.0695 7.95946 12.9591V12.9597C7.95929 13.0868 7.90873 13.2086 7.81887 13.2985C7.72901 13.3883 7.60718 13.4389 7.4801 13.4391H6.51882C6.39174 13.4389 6.26991 13.3883 6.18005 13.2985C6.09018 13.2086 6.03963 13.0868 6.03946 12.9597V12.9591L6.30506 11.3143C6.12527 11.1983 5.97742 11.0392 5.87501 10.8513C5.7726 10.6635 5.7189 10.453 5.71882 10.2391L5.7201 10.2384Z" fill="#E4AA24"/>
</g>
<defs>
<clipPath id="clip0_7055_13529">
<rect width="12.8" height="15.36" fill="white" transform="translate(0.601562 0.320312)"/>
</clipPath>
</defs>
</svg>
