<svg width="24" height="24" viewBox="0 0 24 24" fill="none" xmlns="http://www.w3.org/2000/svg">
<path d="M18.072 1.55469L22.245 5.90469V22.4467H6.65625V22.5007H22.2983V5.95944L18.072 1.55469Z" fill="#909090"/>
<path d="M18.0266 1.5H6.60938V22.446H22.2514V5.90475L18.0266 1.5Z" fill="#F4F4F4"/>
<path d="M6.49562 2.625H1.70312V7.74525H16.7781V2.625H6.49562Z" fill="#7A7B7C"/>
<path d="M16.8546 7.65916H1.79688V2.53516H16.8546V7.65916Z" fill="#DD2025"/>
<path d="M6.79275 3.40197H5.8125V7.00197H6.5835V5.78772L6.75375 5.79747C6.91923 5.79519 7.0832 5.76553 7.239 5.70972C7.37597 5.66321 7.50185 5.58891 7.60875 5.49147C7.71837 5.39955 7.8045 5.28282 7.86 5.15097C7.93593 4.9325 7.96282 4.69999 7.93875 4.46997C7.93447 4.3056 7.90566 4.14281 7.85325 3.98697C7.80602 3.87432 7.7358 3.77278 7.64708 3.68883C7.55835 3.60489 7.45308 3.54039 7.338 3.49947C7.23879 3.46272 7.13596 3.43657 7.03125 3.42147C6.95215 3.40858 6.87214 3.40206 6.792 3.40197M6.65025 5.12247H6.5835V4.01247H6.72825C6.79213 4.00786 6.85624 4.01767 6.91582 4.04116C6.97541 4.06466 7.02895 4.10124 7.0725 4.14822C7.16274 4.26898 7.21095 4.41597 7.20975 4.56672C7.20975 4.75122 7.20975 4.91847 7.04325 5.03622C6.92333 5.10227 6.78677 5.13273 6.65025 5.12247ZM9.4035 3.39222C9.32025 3.39222 9.23925 3.39822 9.18225 3.40047L9.00375 3.40497H8.41875V7.00497H9.10725C9.37034 7.01173 9.63222 6.96715 9.87825 6.87372C10.0763 6.79549 10.2517 6.66888 10.3882 6.50547C10.5221 6.34133 10.6177 6.14943 10.668 5.94372C10.7272 5.71116 10.7559 5.47191 10.7535 5.23197C10.7682 4.94858 10.7463 4.66449 10.6883 4.38672C10.6327 4.18248 10.53 3.99417 10.3882 3.83697C10.2771 3.70985 10.1404 3.60762 9.987 3.53697C9.85562 3.47607 9.71737 3.43124 9.57525 3.40347C9.51874 3.3942 9.46151 3.38994 9.40425 3.39072M9.26775 6.34347H9.19275V4.04547H9.2025C9.35712 4.02759 9.51359 4.05549 9.6525 4.12572C9.75425 4.20696 9.83715 4.30932 9.8955 4.42572C9.95847 4.54822 9.99476 4.68267 10.002 4.82022C10.0088 4.98522 10.002 5.12022 10.002 5.23197C10.0048 5.36069 9.99649 5.48941 9.97725 5.61672C9.95366 5.74726 9.91095 5.87362 9.8505 5.99172C9.78221 6.10185 9.68895 6.19435 9.57825 6.26172C9.48578 6.32172 9.37615 6.34965 9.26625 6.34122M13.0763 3.40497H11.2537V7.00497H12.0247V5.57697H12.9997V4.90797H12.0247V4.07397H13.0747V3.40497" fill="#464648"/>
<path d="M16.3326 15.1921C16.3326 15.1921 18.7236 14.7586 18.7236 15.5754C18.7236 16.3921 17.2423 16.0599 16.3326 15.1921ZM14.5648 15.2544C14.1849 15.3381 13.8147 15.461 13.4601 15.6211L13.7601 14.9461C14.0601 14.2711 14.3713 13.3509 14.3713 13.3509C14.7284 13.954 15.145 14.5198 15.6148 15.0399C15.2611 15.0926 14.9106 15.1647 14.5648 15.2559V15.2544ZM13.6183 10.3794C13.6183 9.66761 13.8486 9.47336 14.0278 9.47336C14.2071 9.47336 14.4088 9.55961 14.4156 10.1776C14.3571 10.799 14.227 11.4116 14.0278 12.0031C13.7541 11.5068 13.6128 10.9484 13.6176 10.3816L13.6183 10.3794ZM10.1316 18.2664C9.39809 17.8276 11.6698 16.4769 12.0816 16.4334C12.0793 16.4341 10.8996 18.7254 10.1316 18.2664ZM19.4218 15.6721C19.4143 15.5971 19.3468 14.7669 17.8693 14.8021C17.2535 14.7913 16.6378 14.8347 16.0296 14.9319C15.44 14.3384 14.9325 13.6687 14.5206 12.9406C14.7799 12.1901 14.9371 11.4081 14.9878 10.6156C14.9661 9.71561 14.7508 9.19961 14.0608 9.20711C13.3708 9.21461 13.2703 9.81836 13.3611 10.7169C13.4499 11.3207 13.6176 11.9102 13.8598 12.4704C13.8598 12.4704 13.5411 13.4626 13.1196 14.4496C12.6981 15.4366 12.4101 15.9541 12.4101 15.9541C11.677 16.1925 10.987 16.547 10.3663 17.0041C9.74834 17.5794 9.49709 18.0211 9.82259 18.4629C10.1031 18.8439 11.0848 18.9301 11.9623 17.7804C12.4278 17.1859 12.8537 16.5616 13.2373 15.9114C13.2373 15.9114 14.5753 15.5446 14.9916 15.4441C15.4078 15.3436 15.9111 15.2641 15.9111 15.2641C15.9111 15.2641 17.1328 16.4934 18.3111 16.4499C19.4893 16.4064 19.4323 15.7456 19.4248 15.6736" fill="#DD2025"/>
<path d="M17.9688 1.55859V5.96334H22.1935L17.9688 1.55859Z" fill="#909090"/>
<path d="M18.0234 1.5V5.90475H22.2482L18.0234 1.5Z" fill="#F4F4F4"/>
<path d="M6.73025 3.34337H5.75V6.94337H6.524V5.72987L6.695 5.73962C6.86048 5.73734 7.02445 5.70769 7.18025 5.65187C7.31722 5.60537 7.4431 5.53106 7.55 5.43362C7.6588 5.34145 7.74415 5.22474 7.799 5.09312C7.87493 4.87466 7.90182 4.64215 7.87775 4.41212C7.87347 4.24776 7.84466 4.08496 7.79225 3.92912C7.74502 3.81648 7.6748 3.71494 7.58608 3.63099C7.49735 3.54704 7.39208 3.48255 7.277 3.44162C7.17733 3.40452 7.074 3.37812 6.96875 3.36287C6.88965 3.34999 6.80964 3.34347 6.7295 3.34337M6.58775 5.06387H6.521V3.95387H6.6665C6.73039 3.94926 6.79449 3.95907 6.85407 3.98257C6.91366 4.00607 6.9672 4.04265 7.01075 4.08962C7.10099 4.21038 7.1492 4.35737 7.148 4.50812C7.148 4.69262 7.148 4.85987 6.9815 4.97762C6.86158 5.04368 6.72502 5.07339 6.5885 5.06312M9.341 3.33362C9.25775 3.33362 9.17675 3.33962 9.11975 3.34187L8.9435 3.34637H8.3585V6.94637H9.047C9.31009 6.95314 9.57197 6.90856 9.818 6.81512C10.0161 6.73689 10.1914 6.61029 10.328 6.44687C10.4618 6.28274 10.5574 6.09083 10.6077 5.88512C10.6669 5.65257 10.6956 5.41332 10.6932 5.17337C10.7079 4.88999 10.686 4.60589 10.628 4.32812C10.5725 4.12389 10.4697 3.93557 10.328 3.77837C10.2168 3.65125 10.0801 3.54903 9.92675 3.47837C9.79537 3.41747 9.65712 3.37265 9.515 3.34487C9.45848 3.33561 9.40126 3.33134 9.344 3.33212M9.2075 6.28487H9.1325V3.98687H9.14225C9.29687 3.96899 9.45334 3.9969 9.59225 4.06712C9.694 4.14837 9.7769 4.25072 9.83525 4.36712C9.89822 4.48962 9.93451 4.62408 9.94175 4.76162C9.9485 4.92662 9.94175 5.06162 9.94175 5.17337C9.94452 5.30209 9.93624 5.43082 9.917 5.55812C9.8934 5.68867 9.8507 5.81503 9.79025 5.93312C9.72196 6.04325 9.6287 6.13575 9.518 6.20312C9.42553 6.26312 9.3159 6.29106 9.206 6.28262M13.0138 3.34637H11.1912V6.94637H11.9622V5.51837H12.9372V4.84937H11.9622V4.01537H13.0122V3.34637" fill="white"/>
</svg>
