<svg width="28" height="28" viewBox="0 0 28 28" fill="none" xmlns="http://www.w3.org/2000/svg">
<path fillRule="evenodd" clipRule="evenodd" d="M14.0026 2.32812C20.4461 2.32812 25.6693 7.55129 25.6693 13.9948C25.6693 20.4383 20.4461 25.6615 14.0026 25.6615C7.5591 25.6615 2.33594 20.4383 2.33594 13.9948C2.33594 7.55129 7.5591 2.32812 14.0026 2.32812ZM4.90844 16.1065C5.31672 17.8592 6.22244 19.4568 7.51677 20.7073C8.81109 21.9577 10.439 22.8078 12.2048 23.1555C11.9796 20.093 10.9728 18.2555 9.7011 17.2393C8.4831 16.2651 6.8311 15.8883 4.90844 16.1053V16.1065ZM18.3041 17.2381C17.0324 18.2566 16.0256 20.093 15.8004 23.1555C17.5664 22.8078 19.1944 21.9575 20.4887 20.7068C21.7831 19.4561 22.6887 17.8583 23.0968 16.1053C21.1741 15.8883 19.5221 16.2651 18.3041 17.2393V17.2381ZM14.0026 4.66146C11.828 4.66107 9.72144 5.42007 8.04679 6.80737C6.37214 8.19468 5.23448 10.1232 4.83027 12.26L4.7801 12.5493L7.35844 12.0336C8.03744 11.8983 8.6826 11.5401 9.4036 11.0536L9.9601 10.6663C10.8899 10.006 12.2678 9.32812 14.0026 9.32812C15.6219 9.32812 16.9298 9.91846 17.8526 10.5345L18.6016 11.0536C19.2316 11.4795 19.8056 11.8061 20.3936 11.973L20.6468 12.0336L23.2251 12.5493C22.8805 10.351 21.7618 8.34816 20.0708 6.90188C18.3798 5.45559 16.2277 4.66103 14.0026 4.66146Z" fill="#1E73BE"/>
</svg>
