<svg width="42" height="42" viewBox="0 0 42 42" fill="none" xmlns="http://www.w3.org/2000/svg">
<path d="M22.5 3H9.75C8.75544 3 7.80161 3.39509 7.09835 4.09835C6.39509 4.80161 6 5.75544 6 6.75V35.25C6 36.2446 6.39509 37.1984 7.09835 37.9016C7.80161 38.6049 8.75544 39 9.75 39H32.25C32.7425 39 33.2301 38.903 33.6851 38.7145C34.14 38.5261 34.5534 38.2499 34.9016 37.9016C35.2499 37.5534 35.5261 37.14 35.7145 36.6851C35.903 36.2301 36 35.7425 36 35.25V16.5L26.25 12.75L22.5 3Z" fill="url(#paint0_linear_7055_11794)"/>
<path d="M22.5 3H9.75C8.75544 3 7.80161 3.39509 7.09835 4.09835C6.39509 4.80161 6 5.75544 6 6.75V35.25C6 36.2446 6.39509 37.1984 7.09835 37.9016C7.80161 38.6049 8.75544 39 9.75 39H32.25C32.7425 39 33.2301 38.903 33.6851 38.7145C34.14 38.5261 34.5534 38.2499 34.9016 37.9016C35.2499 37.5534 35.5261 37.14 35.7145 36.6851C35.903 36.2301 36 35.7425 36 35.25V16.5L26.25 12.75L22.5 3Z" fill="url(#paint1_radial_7055_11794)" fill-opacity="0.5"/>
<path d="M22.5 3H9.75C8.75544 3 7.80161 3.39509 7.09835 4.09835C6.39509 4.80161 6 5.75544 6 6.75V35.25C6 36.2446 6.39509 37.1984 7.09835 37.9016C7.80161 38.6049 8.75544 39 9.75 39H32.25C32.7425 39 33.2301 38.903 33.6851 38.7145C34.14 38.5261 34.5534 38.2499 34.9016 37.9016C35.2499 37.5534 35.5261 37.14 35.7145 36.6851C35.903 36.2301 36 35.7425 36 35.25V16.5L26.25 12.75L22.5 3Z" fill="url(#paint2_radial_7055_11794)" fill-opacity="0.3"/>
<path d="M22.5 3H9.75C8.75544 3 7.80161 3.39509 7.09835 4.09835C6.39509 4.80161 6 5.75544 6 6.75V35.25C6 36.2446 6.39509 37.1984 7.09835 37.9016C7.80161 38.6049 8.75544 39 9.75 39H32.25C32.7425 39 33.2301 38.903 33.6851 38.7145C34.14 38.5261 34.5534 38.2499 34.9016 37.9016C35.2499 37.5534 35.5261 37.14 35.7145 36.6851C35.903 36.2301 36 35.7425 36 35.25V16.5L26.25 12.75L22.5 3Z" fill="url(#paint3_radial_7055_11794)" fill-opacity="0.5"/>
<path d="M22.5 14.25V3L36 16.5H24.75C24.1533 16.5 23.581 16.2629 23.159 15.841C22.7371 15.419 22.5 14.8467 22.5 14.25Z" fill="url(#paint4_linear_7055_11794)"/>
<path d="M21 30.75C21 33.3359 19.9728 35.8158 18.1443 37.6443C16.3158 39.4728 13.8359 40.5 11.25 40.5C8.66414 40.5 6.18419 39.4728 4.35571 37.6443C2.52723 35.8158 1.5 33.3359 1.5 30.75C1.5 28.1641 2.52723 25.6842 4.35571 23.8557C6.18419 22.0272 8.66414 21 11.25 21C13.8359 21 16.3158 22.0272 18.1443 23.8557C19.9728 25.6842 21 28.1641 21 30.75Z" fill="url(#paint5_linear_7055_11794)"/>
<path fill-rule="evenodd" clip-rule="evenodd" d="M11.25 24C11.4489 24 11.6397 24.079 11.7803 24.2197C11.921 24.3603 12 24.5511 12 24.75V30H17.25C17.4489 30 17.6397 30.079 17.7803 30.2197C17.921 30.3603 18 30.5511 18 30.75C18 30.9489 17.921 31.1397 17.7803 31.2803C17.6397 31.421 17.4489 31.5 17.25 31.5H12V36.75C12 36.9489 11.921 37.1397 11.7803 37.2803C11.6397 37.421 11.4489 37.5 11.25 37.5C11.0511 37.5 10.8603 37.421 10.7197 37.2803C10.579 37.1397 10.5 36.9489 10.5 36.75V31.5H5.25C5.05109 31.5 4.86032 31.421 4.71967 31.2803C4.57902 31.1397 4.5 30.9489 4.5 30.75C4.5 30.5511 4.57902 30.3603 4.71967 30.2197C4.86032 30.079 5.05109 30 5.25 30H10.5V24.75C10.5 24.5511 10.579 24.3603 10.7197 24.2197C10.8603 24.079 11.0511 24 11.25 24Z" fill="white"/>
<defs>
<linearGradient id="paint0_linear_7055_11794" x1="27" y1="3" x2="29.082" y2="30.897" gradientUnits="userSpaceOnUse">
<stop stop-color="#6CE0FF"/>
<stop offset="1" stop-color="#4894FE"/>
</linearGradient>
<radialGradient id="paint1_radial_7055_11794" cx="0" cy="0" r="1" gradientUnits="userSpaceOnUse" gradientTransform="translate(37.2513 4.12472) rotate(133.966) scale(24.4875 14.4745)">
<stop offset="0.362" stop-color="#4A43CB"/>
<stop offset="1" stop-color="#4A43CB" stop-opacity="0"/>
</radialGradient>
<radialGradient id="paint2_radial_7055_11794" cx="0" cy="0" r="1" gradientUnits="userSpaceOnUse" gradientTransform="translate(37.2513 4.12472) rotate(133.966) scale(24.4875 14.4745)">
<stop offset="0.362" stop-color="#4A43CB"/>
<stop offset="1" stop-color="#4A43CB" stop-opacity="0"/>
</radialGradient>
<radialGradient id="paint3_radial_7055_11794" cx="0" cy="0" r="1" gradientUnits="userSpaceOnUse" gradientTransform="translate(10.5 36.75) rotate(87.3974) scale(16.5171 16.8821)">
<stop offset="0.535" stop-color="#4A43CB"/>
<stop offset="1" stop-color="#4A43CB" stop-opacity="0"/>
</radialGradient>
<linearGradient id="paint4_linear_7055_11794" x1="29.2275" y1="8.625" x2="25.8525" y2="14.25" gradientUnits="userSpaceOnUse">
<stop stop-color="#9FF0F9"/>
<stop offset="1" stop-color="#B3E0FF"/>
</linearGradient>
<linearGradient id="paint5_linear_7055_11794" x1="2.196" y1="24.657" x2="15.654" y2="38.6385" gradientUnits="userSpaceOnUse">
<stop stop-color="#52D17C"/>
<stop offset="1" stop-color="#22918B"/>
</linearGradient>
</defs>
</svg>
