<svg width="32" height="32" viewBox="0 0 32 32" fill="none" xmlns="http://www.w3.org/2000/svg">
<path d="M14.6693 19.7719V24.0052C14.6693 24.383 14.7973 24.6999 15.0533 24.9559C15.3093 25.2119 15.6257 25.3394 16.0026 25.3385C16.3795 25.3377 16.6964 25.2097 16.9533 24.9545C17.2102 24.6994 17.3377 24.383 17.3359 24.0052V19.7719L18.5359 20.9719C18.6693 21.1052 18.8195 21.2052 18.9866 21.2719C19.1537 21.3385 19.3204 21.3665 19.4866 21.3559C19.6528 21.3452 19.8137 21.3061 19.9693 21.2385C20.1248 21.171 20.2693 21.071 20.4026 20.9385C20.647 20.6719 20.775 20.3608 20.7866 20.0052C20.7982 19.6497 20.6702 19.3385 20.4026 19.0719L16.9359 15.6052C16.8026 15.4719 16.6582 15.3777 16.5026 15.3225C16.347 15.2674 16.1804 15.2394 16.0026 15.2385C15.8248 15.2377 15.6582 15.2657 15.5026 15.3225C15.347 15.3794 15.2026 15.4737 15.0693 15.6052L11.6026 19.0719C11.3359 19.3385 11.2084 19.6497 11.2199 20.0052C11.2315 20.3608 11.3702 20.6719 11.6359 20.9385C11.9026 21.183 12.2137 21.311 12.5693 21.3225C12.9248 21.3341 13.2359 21.2061 13.5026 20.9385L14.6693 19.7719ZM8.0026 29.3385C7.26927 29.3385 6.64172 29.0777 6.11994 28.5559C5.59816 28.0341 5.33683 27.4061 5.33594 26.6719V5.33854C5.33594 4.60521 5.59727 3.97765 6.11994 3.45588C6.6426 2.9341 7.27016 2.67276 8.0026 2.67188H17.5693C17.9248 2.67188 18.2639 2.73854 18.5866 2.87188C18.9093 3.00521 19.1924 3.1941 19.4359 3.43854L25.9026 9.90521C26.147 10.1497 26.3359 10.4332 26.4693 10.7559C26.6026 11.0785 26.6693 11.4172 26.6693 11.7719V26.6719C26.6693 27.4052 26.4084 28.0332 25.8866 28.5559C25.3648 29.0785 24.7368 29.3394 24.0026 29.3385H8.0026ZM17.3359 10.6719C17.3359 11.0497 17.4639 11.3665 17.7199 11.6225C17.9759 11.8785 18.2924 12.0061 18.6693 12.0052H24.0026L17.3359 5.33854V10.6719Z" fill="#1E73BE"/>
</svg>
