<svg width="28" height="28" viewBox="0 0 28 28" fill="none" xmlns="http://www.w3.org/2000/svg">
<path d="M12.0176 1.75C9.04101 1.75 6.65244 3.79425 6.65244 7.7012C6.65244 10.2526 7.66865 12.8513 9.2117 14.4525C9.81353 16.0538 8.72826 16.6497 8.50331 16.7346C5.3886 17.8771 1.75 19.9489 1.75 22.007V22.7765C1.75 25.5815 7.09148 26.2297 12.0472 26.2297C13.1273 26.2274 14.207 26.1866 15.2843 26.1073C13.9354 24.6836 13.1852 22.7961 13.1887 20.8349C13.1887 19.0679 13.7905 17.4489 14.791 16.1485C14.643 15.8012 14.5838 15.2537 14.8531 14.422C16.3873 12.8187 17.3818 10.2427 17.3818 7.70022C17.3818 3.79425 14.9902 1.75099 12.0166 1.75099L12.0176 1.75ZM20.8971 14.6065C19.2453 14.6065 17.6612 15.2626 16.4932 16.4306C15.3253 17.5985 14.6691 19.1826 14.6691 20.8344C14.6691 22.4862 15.3253 24.0703 16.4932 25.2382C17.6612 26.4062 19.2453 27.0624 20.8971 27.0624C22.5488 27.0624 24.1329 26.4062 25.3009 25.2382C26.4688 24.0703 27.125 22.4862 27.125 20.8344C27.125 19.1826 26.4688 17.5985 25.3009 16.4306C24.1329 15.2626 22.5488 14.6065 20.8971 14.6065ZM20.0338 17.3818H21.7603V19.941H24.3196V21.7288H21.7603V24.288H20.0338V21.7288H17.4439V19.941H20.0338V17.3818Z" fill="#1E73BE"/>
</svg>
